<mxfile host="app.diagrams.net" modified="2023-09-27T07:27:45.336Z" agent="Mozilla/5.0 (Windows NT 10.0; Win64; x64) AppleWebKit/537.36 (KHTML, like Gecko) Chrome/116.0.0.0 Safari/537.36" version="21.8.2" etag="t2eDSHaTQYmpTAt0aeaC" type="github">
  <diagram name="第 1 页" id="Jv3gOTIoTW-8eX9uztr_">
    <mxGraphModel>
      <root>
        <mxCell id="0" />
        <mxCell id="1" parent="0" />
      </root>
    </mxGraphModel>
  </diagram>
</mxfile>
